<svg width="58" height="100" viewBox="0 0 58 100" fill="none" xmlns="http://www.w3.org/2000/svg">
<path id="logo" fill-rule="evenodd" clip-rule="evenodd" d="M42.029 62.5899V65.1079L40.3478 71.7626L39.9275 77.6978L37.8261 83.6331V93.5252L34.3237 100H21.9952L17.9324 93.5252V83.6331L15.8309 77.6978L15.2705 71.7626L13.7295 65.1079V62.5899H15.2705L15.8309 65.1079H26.6184L26.058 54.6763L19.4734 41.7266L13.8696 42.2662L0 35.2518L13.8696 38.1295L19.6135 41.187L14.2899 36.5108L4.62319 21.0432L16.6715 32.7338L19.8937 40.6475L17.6522 32.7338L16.6715 14.7482L21.2947 32.7338L20.4541 40.6475L26.6184 50.5396V30.9353L25.4976 25.8993L24.2367 23.5611L21.0145 15.4676L20.4541 11.3309L21.9952 4.85614L25.0773 0.53959L24.2367 6.11511V11.3309L25.0773 15.4676L26.6184 19.2446L25.4976 11.3309L26.058 4.85614L27.4589 0L29.1401 4.85614L29.9807 11.3309L29.1401 19.2446L31.1014 12.5899L30.5411 6.11511L29.1401 0L32.9227 5.57554L34.1836 11.3309V14.7482L32.9227 19.2446L30.5411 23.5611L29.1401 26.9784L28.5797 30.9353V38.8489V45.8633L34.1836 41.5468L36.0048 32.7338L47.3527 18.3453L39.9275 34.5324L35.4444 40.6475L41.3285 36.5108L58 30.9353L42.5894 41.5468H36.0048L42.029 44.6043L54.3575 56.295L39.9275 48.741L35.4444 42.8058L28.5797 48.741L29.1401 65.1079H39.9275L40.3478 62.5899H42.029Z" fill="url(#paint0_linear_191_129)"/>
<defs>
<linearGradient id="paint0_linear_191_129" x1="28.2295" y1="-1.29898e-07" x2="28.2295" y2="100" gradientUnits="userSpaceOnUse">
<stop stop-color="#FE0A0A"/>
<stop offset="0.51162" stop-color="#25D366"/>
<stop offset="1" stop-color="#2F0DFF" stop-opacity="0.93"/>
</linearGradient>
</defs>
</svg>
